<svg xmlns="http://www.w3.org/2000/svg" xmlns:xlink="http://www.w3.org/1999/xlink" width="192" zoomAndPan="magnify" viewBox="0 0 144 143.999998" height="192" preserveAspectRatio="xMidYMid meet" version="1.0"><defs><g/><clipPath id="d50d73306a"><path d="M 22 20.097656 L 72 20.097656 L 72 112 L 22 112 Z M 22 20.097656 " clip-rule="nonzero"/></clipPath><clipPath id="afe81a3862"><path d="M 74 20.097656 L 123 20.097656 L 123 112 L 74 112 Z M 74 20.097656 " clip-rule="nonzero"/></clipPath><clipPath id="98fc2cb9fa"><path d="M 2.683594 39 L 141.433594 39 L 141.433594 123.597656 L 2.683594 123.597656 Z M 2.683594 39 " clip-rule="nonzero"/></clipPath><clipPath id="c2859e2e50"><rect x="0" width="108" y="0" height="64"/></clipPath></defs><g clip-path="url(#d50d73306a)"><path fill="#121c2b" d="M 22.285156 57.617188 L 22.285156 95.105469 L 24.421875 95.246094 C 39.910156 96.273438 55.078125 101.125 67.929688 109.1875 C 69.355469 110.078125 70.800781 110.988281 71.160156 111.226562 L 71.792969 111.640625 L 71.792969 38.488281 L 70.863281 37.65625 C 64.285156 31.835938 54.78125 26.507812 45.75 23.617188 C 39.195312 21.519531 30.71875 20.113281 24.523438 20.113281 L 22.285156 20.113281 Z M 22.285156 57.617188 " fill-opacity="1" fill-rule="nonzero"/></g><g clip-path="url(#afe81a3862)"><path fill="#121c2b" d="M 115.0625 20.410156 C 100.921875 21.816406 87.675781 27.460938 76.207031 36.925781 L 74.386719 38.429688 L 74.386719 75.007812 C 74.367188 95.144531 74.40625 111.601562 74.445312 111.601562 C 74.503906 111.601562 75.691406 110.847656 77.078125 109.9375 C 83.792969 105.5625 90.464844 102.335938 98.328125 99.699219 C 105.753906 97.183594 112.386719 95.878906 120.765625 95.265625 L 122.488281 95.125 L 122.488281 20.113281 L 120.070312 20.132812 C 118.726562 20.152344 116.488281 20.269531 115.0625 20.410156 Z M 115.0625 20.410156 " fill-opacity="1" fill-rule="nonzero"/></g><path fill="#121c2b" d="M 16.246094 31.398438 C 15.492188 31.617188 14.363281 31.953125 13.769531 32.152344 L 12.679688 32.527344 L 12.621094 70.472656 L 12.582031 108.433594 L 37.375 108.433594 L 62.1875 108.414062 L 59.613281 107.324219 C 56.644531 106.058594 50.640625 103.976562 47.039062 102.988281 C 39.078125 100.789062 30.78125 99.5625 21.453125 99.207031 L 17.929688 99.085938 L 17.929688 65.046875 C 17.929688 46.332031 17.867188 31.003906 17.789062 31.023438 C 17.691406 31.023438 17.015625 31.203125 16.246094 31.398438 Z M 16.246094 31.398438 " fill-opacity="1" fill-rule="nonzero"/><path fill="#121c2b" d="M 126.449219 65.183594 L 126.449219 99.324219 L 123.21875 99.324219 C 111.714844 99.324219 98.167969 102.273438 86.148438 107.402344 L 83.972656 108.335938 L 99.617188 108.433594 C 108.230469 108.492188 118.882812 108.492188 123.339844 108.453125 L 131.398438 108.394531 L 131.359375 70.453125 L 131.300781 32.527344 L 130.210938 32.152344 C 129.617188 31.953125 128.527344 31.617188 127.796875 31.398438 L 126.449219 31.023438 Z M 126.449219 65.183594 " fill-opacity="1" fill-rule="nonzero"/><g clip-path="url(#98fc2cb9fa)"><path fill="#121c2b" d="M 4.957031 39.699219 C 4.027344 40.132812 3.195312 40.964844 2.898438 41.757812 C 2.738281 42.152344 2.679688 53.460938 2.679688 78.6875 C 2.679688 113.800781 2.699219 115.085938 3.054688 115.878906 C 3.472656 116.769531 4.382812 117.5625 5.433594 117.917969 C 5.925781 118.078125 13.53125 118.136719 33.433594 118.136719 L 60.742188 118.136719 L 61.871094 119.304688 C 63.871094 121.363281 66.78125 122.929688 69.851562 123.5625 C 71.753906 123.960938 75.394531 123.980469 77.160156 123.601562 C 80.070312 122.96875 83.496094 121.128906 85.277344 119.1875 L 86.148438 118.234375 L 138.46875 118.039062 L 139.417969 117.445312 C 140.054688 117.046875 140.527344 116.554688 140.84375 115.976562 L 141.300781 115.105469 L 141.300781 78.789062 C 141.300781 39.300781 141.359375 41.757812 140.25 40.527344 C 139.417969 39.617188 138.410156 39.320312 136.113281 39.320312 L 133.972656 39.320312 L 133.972656 111.007812 L 108.191406 111.046875 C 93.992188 111.066406 82.050781 111.105469 81.632812 111.105469 C 80.980469 111.125 80.824219 111.246094 80.328125 112.019531 C 77.753906 116.097656 71.515625 116.871094 67.929688 113.5625 C 67.414062 113.085938 66.742188 112.316406 66.40625 111.859375 L 65.832031 111.007812 L 10.007812 111.007812 L 10.007812 39.320312 L 7.886719 39.320312 C 6.222656 39.320312 5.570312 39.421875 4.957031 39.699219 Z M 4.957031 39.699219 " fill-opacity="1" fill-rule="nonzero"/></g><g transform="matrix(1, 0, 0, 1, 24, 31)"><g clip-path="url(#c2859e2e50)"><g fill="#ffffff" fill-opacity="1"><g transform="translate(0.973373, 50.794574)"><g><path d="M 36.589844 -24.125 C 36.164062 -12.511719 35.738281 -8.285156 34.882812 -7.300781 C 34.542969 -6.789062 34.199219 -6.703125 33.558594 -6.703125 C 32.875 -6.703125 31.382812 -6.746094 29.71875 -6.875 C 30.1875 -6.0625 30.484375 -4.824219 30.527344 -3.929688 C 32.277344 -3.84375 33.945312 -3.84375 34.882812 -3.972656 C 35.992188 -4.097656 36.761719 -4.398438 37.445312 -5.292969 C 38.640625 -6.875 39.109375 -11.613281 39.582031 -25.574219 C 39.625 -26.003906 39.625 -26.984375 39.625 -26.984375 L 31.808594 -26.984375 C 31.9375 -29.632812 31.9375 -32.40625 31.980469 -35.3125 L 29.035156 -35.3125 C 28.992188 -32.40625 28.992188 -29.589844 28.90625 -26.984375 L 23.78125 -26.984375 L 23.78125 -24.125 L 28.777344 -24.125 C 28.265625 -15.542969 26.726562 -9.050781 21.5625 -5.039062 C 22.289062 -4.609375 23.3125 -3.585938 23.65625 -2.902344 C 29.375 -7.429688 31.125 -14.644531 31.679688 -24.125 Z M 14.472656 -22.160156 L 19.683594 -22.160156 L 19.683594 -14.515625 L 14.304688 -14.515625 C 14.433594 -15.882812 14.472656 -17.25 14.472656 -18.53125 Z M 7.046875 -14.515625 L 7.046875 -22.160156 L 11.613281 -22.160156 L 11.613281 -18.574219 C 11.613281 -17.292969 11.570312 -15.925781 11.441406 -14.515625 Z M 15.5 -29.375 C 14.730469 -27.839844 13.75 -26.128906 12.808594 -24.851562 L 6.917969 -24.851562 C 8.027344 -26.300781 9.050781 -27.882812 9.863281 -29.375 Z M 21.859375 -0.46875 C 18.1875 -0.46875 17.507812 -0.8125 17.507812 -2.347656 L 17.507812 -11.828125 L 22.671875 -11.828125 L 22.671875 -24.851562 L 16.054688 -24.851562 C 17.335938 -26.726562 18.574219 -28.992188 19.382812 -30.914062 L 17.464844 -32.152344 L 16.949219 -32.023438 L 11.316406 -32.023438 C 11.785156 -33.089844 12.296875 -34.15625 12.722656 -35.183594 L 9.648438 -35.695312 C 8.242188 -31.980469 5.636719 -27.113281 1.75 -23.441406 C 2.476562 -23.097656 3.5 -22.203125 4.054688 -21.519531 L 4.226562 -21.691406 L 4.226562 -11.828125 L 11.058594 -11.828125 C 10.078125 -7.34375 7.683594 -2.648438 1.578125 1.152344 C 2.261719 1.621094 3.246094 2.5625 3.757812 3.246094 C 10.503906 -1.152344 13.066406 -6.617188 13.960938 -11.828125 L 14.472656 -11.828125 L 14.472656 -2.304688 C 14.472656 1.367188 15.96875 2.261719 21.902344 2.261719 L 34.585938 2.261719 C 39.28125 2.261719 40.304688 0.980469 40.859375 -4.269531 C 39.964844 -4.441406 38.726562 -4.867188 38.042969 -5.335938 C 37.703125 -1.195312 37.273438 -0.46875 34.414062 -0.46875 Z M 21.859375 -0.46875 "/></g></g></g><g fill="#ffffff" fill-opacity="1"><g transform="translate(53.915155, 50.794574)"><g><path d="M 40.261719 -23.140625 C 38.941406 -25.53125 35.867188 -29.246094 33.261719 -31.9375 L 31 -30.527344 C 32.066406 -29.417969 33.175781 -28.09375 34.242188 -26.8125 L 21.816406 -25.789062 C 23.996094 -28.265625 26.257812 -31.46875 28.179688 -34.671875 L 24.933594 -35.480469 C 23.226562 -31.851562 20.367188 -28.050781 19.46875 -27.113281 C 18.660156 -26.128906 17.933594 -25.449219 17.25 -25.320312 C 17.589844 -24.550781 18.105469 -23.140625 18.273438 -22.542969 C 19.34375 -22.972656 21.09375 -23.140625 35.992188 -24.464844 C 36.804688 -23.355469 37.402344 -22.332031 37.871094 -21.519531 Z M 5.507812 -14.390625 C 5.808594 -16.351562 6.0625 -18.574219 6.320312 -20.75 L 15.628906 -20.75 L 15.628906 -33.433594 L 2.648438 -33.433594 L 2.648438 -30.484375 L 12.679688 -30.484375 L 12.679688 -23.65625 L 3.757812 -23.65625 C 3.414062 -19.769531 2.734375 -14.6875 2.175781 -11.484375 L 12.851562 -11.484375 C 12.339844 -4.097656 11.785156 -1.152344 10.972656 -0.339844 C 10.632812 0.0429688 10.203125 0.0859375 9.523438 0.0859375 C 8.796875 0.0859375 6.960938 0.0859375 5.039062 -0.0859375 C 5.550781 0.726562 5.847656 1.921875 5.890625 2.816406 C 7.855469 2.945312 9.777344 2.945312 10.84375 2.859375 C 12.039062 2.773438 12.851562 2.476562 13.621094 1.621094 C 14.773438 0.300781 15.371094 -3.332031 15.96875 -12.980469 C 16.011719 -13.40625 16.054688 -14.390625 16.054688 -14.390625 Z M 20.878906 -10.460938 L 20.878906 -16.394531 L 26.644531 -16.394531 L 26.644531 -10.460938 Z M 35.652344 -16.394531 L 35.652344 -10.460938 L 29.71875 -10.460938 L 29.71875 -16.394531 Z M 41.117188 2.21875 C 40.222656 -0.339844 37.871094 -4.140625 35.652344 -6.960938 L 33.046875 -5.808594 C 33.902344 -4.695312 34.753906 -3.332031 35.566406 -2.050781 L 29.71875 -1.664062 L 29.71875 -7.8125 L 38.597656 -7.8125 L 38.597656 -19.042969 L 29.71875 -19.042969 L 29.71875 -23.183594 L 26.644531 -23.183594 L 26.644531 -19.042969 L 18.0625 -19.042969 L 18.0625 -7.8125 L 26.644531 -7.8125 L 26.644531 -1.453125 C 22.714844 -1.195312 19.085938 -0.980469 16.308594 -0.855469 L 16.738281 2.21875 C 22.117188 1.835938 29.761719 1.28125 37.105469 0.683594 C 37.617188 1.75 38.042969 2.691406 38.34375 3.542969 Z M 41.117188 2.21875 "/></g></g></g></g></g></svg>