<svg xmlns="http://www.w3.org/2000/svg" xmlns:xlink="http://www.w3.org/1999/xlink" width="512" zoomAndPan="magnify" viewBox="0 0 384 383.999986" height="512" preserveAspectRatio="xMidYMid meet" version="1.0"><defs><g/><clipPath id="36378e63b0"><path d="M 59 53.597656 L 192 53.597656 L 192 298 L 59 298 Z M 59 53.597656 " clip-rule="nonzero"/></clipPath><clipPath id="3c28573be0"><path d="M 198 53.597656 L 327 53.597656 L 327 298 L 198 298 Z M 198 53.597656 " clip-rule="nonzero"/></clipPath><clipPath id="ea4983439e"><path d="M 7.15625 104 L 376.90625 104 L 376.90625 330.347656 L 7.15625 330.347656 Z M 7.15625 104 " clip-rule="nonzero"/></clipPath><clipPath id="520094ea60"><rect x="0" width="284" y="0" height="167"/></clipPath></defs><g clip-path="url(#36378e63b0)"><path fill="#121c2b" d="M 59.429688 153.65625 L 59.429688 253.628906 L 65.132812 253.996094 C 106.429688 256.742188 146.882812 269.683594 181.160156 291.175781 C 184.960938 293.554688 188.816406 295.984375 189.765625 296.617188 L 191.457031 297.726562 L 191.457031 102.640625 L 188.976562 100.421875 C 171.441406 84.894531 146.09375 70.6875 122.011719 62.980469 C 104.53125 57.382812 81.925781 53.632812 65.398438 53.632812 L 59.429688 53.632812 Z M 59.429688 153.65625 " fill-opacity="1" fill-rule="nonzero"/></g><g clip-path="url(#3c28573be0)"><path fill="#121c2b" d="M 306.851562 54.421875 C 269.144531 58.171875 233.8125 73.222656 203.234375 98.46875 L 198.375 102.480469 L 198.375 200.023438 C 198.324219 253.734375 198.429688 297.621094 198.535156 297.621094 C 198.691406 297.621094 201.859375 295.613281 205.558594 293.183594 C 223.460938 281.511719 241.257812 272.902344 262.222656 265.878906 C 282.027344 259.171875 299.71875 255.6875 322.058594 254.050781 L 326.65625 253.679688 L 326.65625 53.632812 L 320.210938 53.683594 C 316.621094 53.738281 310.652344 54.054688 306.851562 54.421875 Z M 306.851562 54.421875 " fill-opacity="1" fill-rule="nonzero"/></g><path fill="#121c2b" d="M 43.320312 83.734375 C 41.316406 84.316406 38.304688 85.210938 36.71875 85.742188 L 33.816406 86.742188 L 33.65625 187.929688 L 33.550781 289.171875 L 99.671875 289.171875 L 165.84375 289.117188 L 158.976562 286.210938 C 151.054688 282.832031 135.054688 277.289062 125.441406 274.648438 C 104.214844 268.785156 82.085938 265.511719 57.210938 264.558594 L 47.808594 264.242188 L 47.808594 173.460938 C 47.808594 123.554688 47.652344 82.675781 47.441406 82.730469 C 47.175781 82.730469 45.382812 83.207031 43.320312 83.734375 Z M 43.320312 83.734375 " fill-opacity="1" fill-rule="nonzero"/><path fill="#121c2b" d="M 337.214844 173.828125 L 337.214844 264.875 L 328.609375 264.875 C 297.925781 264.875 261.800781 272.746094 229.746094 286.425781 L 223.9375 288.90625 L 265.65625 289.171875 C 288.628906 289.328125 317.042969 289.328125 328.925781 289.222656 L 350.417969 289.066406 L 350.3125 187.878906 L 350.15625 86.742188 L 347.25 85.742188 C 345.667969 85.210938 342.761719 84.316406 340.808594 83.734375 L 337.214844 82.730469 Z M 337.214844 173.828125 " fill-opacity="1" fill-rule="nonzero"/><g clip-path="url(#ea4983439e)"><path fill="#121c2b" d="M 13.21875 105.863281 C 10.738281 107.023438 8.519531 109.242188 7.726562 111.355469 C 7.304688 112.410156 7.144531 142.566406 7.144531 209.847656 C 7.144531 303.480469 7.199219 306.914062 8.148438 309.027344 C 9.257812 311.402344 11.6875 313.515625 14.488281 314.464844 C 15.808594 314.890625 36.085938 315.046875 89.160156 315.046875 L 161.988281 315.046875 L 165 318.164062 C 170.332031 323.65625 178.097656 327.828125 186.28125 329.519531 C 191.351562 330.574219 201.070312 330.628906 205.769531 329.625 C 213.53125 327.933594 222.667969 323.023438 227.421875 317.847656 L 229.746094 315.3125 L 299.507812 315.046875 L 369.273438 314.785156 L 371.808594 313.199219 C 373.5 312.144531 374.765625 310.824219 375.609375 309.292969 L 376.824219 306.96875 L 376.824219 210.113281 C 376.824219 104.804688 376.984375 111.355469 374.027344 108.078125 C 371.808594 105.652344 369.113281 104.859375 362.988281 104.859375 L 357.285156 104.859375 L 357.285156 296.035156 L 288.523438 296.140625 C 250.660156 296.195312 218.8125 296.300781 217.703125 296.300781 C 215.960938 296.351562 215.539062 296.667969 214.21875 298.730469 C 207.355469 309.609375 190.71875 311.667969 181.160156 302.847656 C 179.785156 301.582031 177.992188 299.519531 177.09375 298.304688 L 175.5625 296.035156 L 26.6875 296.035156 L 26.6875 104.859375 L 21.035156 104.859375 C 16.597656 104.859375 14.855469 105.121094 13.21875 105.863281 Z M 13.21875 105.863281 " fill-opacity="1" fill-rule="nonzero"/></g><g transform="matrix(1, 0, 0, 1, 66, 85)"><g clip-path="url(#520094ea60)"><g fill="#ffffff" fill-opacity="1"><g transform="translate(0.595667, 133.118841)"><g><path d="M 97.578125 -64.332031 C 96.4375 -33.359375 95.300781 -22.089844 93.023438 -19.46875 C 92.113281 -18.105469 91.203125 -17.875 89.492188 -17.875 C 87.671875 -17.875 83.6875 -17.988281 79.246094 -18.332031 C 80.5 -16.167969 81.296875 -12.867188 81.410156 -10.476562 C 86.078125 -10.246094 90.519531 -10.246094 93.023438 -10.589844 C 95.984375 -10.929688 98.03125 -11.726562 99.855469 -14.117188 C 103.042969 -18.332031 104.296875 -30.96875 105.546875 -68.203125 C 105.660156 -69.339844 105.660156 -71.960938 105.660156 -71.960938 L 84.824219 -71.960938 C 85.167969 -79.019531 85.167969 -86.417969 85.28125 -94.160156 L 77.425781 -94.160156 C 77.3125 -86.417969 77.3125 -78.90625 77.082031 -71.960938 L 63.417969 -71.960938 L 63.417969 -64.332031 L 76.742188 -64.332031 C 75.375 -41.445312 71.277344 -24.136719 57.5 -13.433594 C 59.433594 -12.296875 62.167969 -9.5625 63.078125 -7.742188 C 78.335938 -19.8125 83.003906 -39.054688 84.484375 -64.332031 Z M 38.597656 -59.09375 L 52.488281 -59.09375 L 52.488281 -38.710938 L 38.144531 -38.710938 C 38.484375 -42.355469 38.597656 -46 38.597656 -49.414062 Z M 18.785156 -38.710938 L 18.785156 -59.09375 L 30.96875 -59.09375 L 30.96875 -49.527344 C 30.96875 -46.113281 30.855469 -42.46875 30.515625 -38.710938 Z M 41.332031 -78.335938 C 39.28125 -74.238281 36.664062 -69.683594 34.15625 -66.265625 L 18.445312 -66.265625 C 21.40625 -70.136719 24.136719 -74.351562 26.300781 -78.335938 Z M 58.296875 -1.253906 C 48.503906 -1.253906 46.683594 -2.164062 46.683594 -6.261719 L 46.683594 -31.539062 L 60.460938 -31.539062 L 60.460938 -66.265625 L 42.8125 -66.265625 C 46.226562 -71.277344 49.527344 -77.3125 51.691406 -82.433594 L 46.570312 -85.734375 L 45.203125 -85.394531 L 30.171875 -85.394531 C 31.425781 -88.242188 32.792969 -91.085938 33.929688 -93.820312 L 25.730469 -95.1875 C 21.976562 -85.28125 15.03125 -72.300781 4.667969 -62.507812 C 6.605469 -61.597656 9.335938 -59.207031 10.816406 -57.386719 L 11.273438 -57.839844 L 11.273438 -31.539062 L 29.488281 -31.539062 C 26.871094 -19.582031 20.496094 -7.058594 4.210938 3.074219 C 6.035156 4.328125 8.652344 6.832031 10.019531 8.652344 C 28.007812 -3.074219 34.839844 -17.648438 37.230469 -31.539062 L 38.597656 -31.539062 L 38.597656 -6.148438 C 38.597656 3.644531 42.582031 6.035156 58.410156 6.035156 L 92.226562 6.035156 C 104.75 6.035156 107.484375 2.617188 108.964844 -11.386719 C 106.574219 -11.839844 103.269531 -12.980469 101.449219 -14.234375 C 100.539062 -3.1875 99.398438 -1.253906 91.769531 -1.253906 Z M 58.296875 -1.253906 "/></g></g></g><g fill="#ffffff" fill-opacity="1"><g transform="translate(141.773738, 133.118841)"><g><path d="M 107.371094 -61.710938 C 103.839844 -68.089844 95.640625 -77.992188 88.695312 -85.167969 L 82.660156 -81.410156 C 85.507812 -78.449219 88.46875 -74.917969 91.316406 -71.503906 L 58.183594 -68.769531 C 63.988281 -75.375 70.023438 -83.914062 75.148438 -92.453125 L 66.492188 -94.617188 C 61.941406 -84.9375 54.3125 -74.804688 51.917969 -72.300781 C 49.757812 -69.683594 47.820312 -67.859375 46 -67.519531 C 46.910156 -65.46875 48.277344 -61.710938 48.730469 -60.117188 C 51.578125 -61.257812 56.246094 -61.710938 95.984375 -65.242188 C 98.148438 -62.28125 99.742188 -59.546875 100.992188 -57.386719 Z M 14.6875 -38.371094 C 15.484375 -43.609375 16.167969 -49.527344 16.851562 -55.335938 L 41.671875 -55.335938 L 41.671875 -89.152344 L 7.058594 -89.152344 L 7.058594 -81.296875 L 33.816406 -81.296875 L 33.816406 -63.078125 L 10.019531 -63.078125 C 9.109375 -52.71875 7.285156 -39.167969 5.808594 -30.628906 L 34.273438 -30.628906 C 32.90625 -10.929688 31.425781 -3.074219 29.261719 -0.910156 C 28.351562 0.113281 27.210938 0.226562 25.390625 0.226562 C 23.453125 0.226562 18.558594 0.226562 13.433594 -0.226562 C 14.800781 1.9375 15.597656 5.125 15.710938 7.515625 C 20.949219 7.855469 26.074219 7.855469 28.921875 7.628906 C 32.109375 7.402344 34.273438 6.605469 36.320312 4.328125 C 39.394531 0.796875 40.988281 -8.882812 42.582031 -34.613281 C 42.699219 -35.75 42.8125 -38.371094 42.8125 -38.371094 Z M 55.675781 -27.894531 L 55.675781 -43.722656 L 71.046875 -43.722656 L 71.046875 -27.894531 Z M 95.074219 -43.722656 L 95.074219 -27.894531 L 79.246094 -27.894531 L 79.246094 -43.722656 Z M 109.648438 5.921875 C 107.253906 -0.910156 100.992188 -11.042969 95.074219 -18.558594 L 88.128906 -15.484375 C 90.40625 -12.523438 92.679688 -8.882812 94.84375 -5.464844 L 79.246094 -4.441406 L 79.246094 -20.835938 L 102.929688 -20.835938 L 102.929688 -50.78125 L 79.246094 -50.78125 L 79.246094 -61.824219 L 71.046875 -61.824219 L 71.046875 -50.78125 L 48.164062 -50.78125 L 48.164062 -20.835938 L 71.046875 -20.835938 L 71.046875 -3.871094 C 60.574219 -3.1875 50.894531 -2.617188 43.496094 -2.277344 L 44.632812 5.921875 C 58.980469 4.894531 79.359375 3.414062 98.945312 1.820312 C 100.308594 4.667969 101.449219 7.171875 102.246094 9.449219 Z M 109.648438 5.921875 "/></g></g></g></g></g></svg>